<svg xmlns="http://www.w3.org/2000/svg" xml:space="preserve" width="25mm" height="25mm" style="shape-rendering:geometricPrecision;text-rendering:geometricPrecision;image-rendering:optimizeQuality;fill-rule:evenodd;clip-rule:evenodd" viewBox="0 0 1.083 1.083"><defs><radialGradient id="id0" gradientUnits="userSpaceOnUse" cx=".399" cy=".428" r=".429" fx=".399" fy=".428"><stop offset="0" style="stop-color:#fff"/><stop offset=".302" style="stop-color:#f3f516"/><stop offset=".588" style="stop-color:#fcce00"/><stop offset="1" style="stop-color:#ff9e67"/></radialGradient><style>.fil7{fill:#000}.fil0{fill:gray}</style></defs><g id="Layer_x0020_1"><path class="fil0" d="M0 0h1.083v1.083H0z"/><path style="fill:#ccc" d="M.035.035h1.013v1.013H.035z"/><path style="fill:#fff" d="M.035.035h1.013l-.432.43-.581.583z"/><path class="fil0" d="M1.055.029v1.026H.029z"/><path style="fill:#c6c6c6" d="M.129.129h.826v.826H.129z"/><g id="_281587800"><circle id="_281588328" cx=".541" cy=".541" r=".325" style="fill:none"/><circle id="_281588256" cx=".544" cy=".535" r=".315" style="fill:url(#id0)"/><path id="_281588184" d="M.541.196a.344.344 0 0 1 .345.345.344.344 0 0 1-.344.345.344.344 0 0 1-.346-.344.344.344 0 0 1 .345-.346zm0 .04A.305.305 0 0 0 .236.54.305.305 0 0 0 .54.848.305.305 0 0 0 .848.541.305.305 0 0 0 .541.236z" style="fill:#000;fill-rule:nonzero"/><path id="_281588136" class="fil7" d="M.648.392A.171.171 0 0 0 .6.398H.48A.171.171 0 0 0 .434.392C.381.392.34.407.34.46c0 .052.025.093.077.093S.528.491.528.46C.528.43.526.434.523.427h.036C.555.434.554.428.554.459c0 .032.06.093.112.093.052 0 .076-.04.076-.093C.742.407.7.392.648.392z" style="stroke:#000;stroke-width:.00330081"/><path id="_281588064" class="fil7" d="M.339.437S.264.481.227.545C.19.61.221.603.221.603S.27.518.334.483C.397.45.339.438.339.438z"/><path id="_281587992" class="fil7" d="M.744.437s.074.044.112.108C.893.61.862.603.862.603S.812.518.749.483C.686.45.744.438.744.438z"/><path id="_281587920" class="fil7" d="M.674.622a.04.04 0 0 1 .01.026c0 .038-.062.068-.14.068-.077 0-.14-.03-.14-.068a.04.04 0 0 1 .01-.026c.022.025.072.042.13.042.059 0 .11-.017.13-.042z"/><path id="_281587824" style="fill:#fff" d="m.38.361.014.047h.049l-.04.028.016.046-.04-.028L.34.482.355.436.315.407h.05z"/></g></g></svg>